<svg width="397" height="397" xmlns="http://www.w3.org/2000/svg" xmlns:xlink="http://www.w3.org/1999/xlink" xml:space="preserve" overflow="hidden"><g transform="translate(-3373 -1258)"><path d="M3376.5 1326.5C3376.5 1290.6 3405.6 1261.5 3441.5 1261.5L3701.5 1261.5C3737.4 1261.5 3766.5 1290.6 3766.5 1326.5L3766.5 1586.5C3766.5 1622.4 3737.4 1651.5 3701.5 1651.5L3441.5 1651.5C3405.6 1651.5 3376.5 1622.4 3376.5 1586.5Z" stroke="#F2F2F2" stroke-width="6.875" stroke-miterlimit="8" fill="#156082" fill-rule="evenodd"/><g><g><g><path d="M129.262 162.982C129.262 192.956 153.616 217.31 183.589 217.31 213.563 217.31 237.917 192.956 237.917 162.982 237.917 133.009 213.563 108.655 183.589 108.655 153.616 108.655 129.262 133.009 129.262 162.982ZM213.938 179.093 213.938 190.708 152.866 190.708 152.866 179.093C152.866 176.845 153.99 174.597 155.864 173.099 160.36 169.727 165.23 167.478 170.851 165.98 174.972 164.856 179.093 164.106 183.589 164.106 187.711 164.106 192.207 164.856 196.328 165.98 201.574 167.478 206.819 169.727 211.315 173.099 212.814 174.597 213.938 176.845 213.938 179.093ZM183.589 129.637C191.832 129.637 198.951 136.381 198.951 144.998L198.951 144.998C198.951 153.241 192.207 160.36 183.589 160.36 175.347 160.36 168.228 153.616 168.228 144.998 168.228 136.381 174.972 129.637 183.589 129.637Z" fill="#F2F2F2" transform="matrix(1.00087 0 0 1 3393 1287.72)"/><path d="M340.952 119.895 352.192 119.895 352.192 131.135 340.952 131.135Z" fill="#F2F2F2" transform="matrix(1.00087 0 0 1 3393 1287.72)"/><path d="M276.883 119.895 287.748 119.895 287.748 131.135 276.883 131.135Z" fill="#F2F2F2" transform="matrix(1.00087 0 0 1 3393 1287.72)"/><path d="M298.614 119.895 309.479 119.895 309.479 131.135 298.614 131.135Z" fill="#F2F2F2" transform="matrix(1.00087 0 0 1 3393 1287.72)"/><path d="M319.97 119.895 330.836 119.895 330.836 131.135 319.97 131.135Z" fill="#F2F2F2" transform="matrix(1.00087 0 0 1 3393 1287.72)"/><path d="M254.777 119.895 266.017 119.895 266.017 131.135 254.777 131.135Z" fill="#F2F2F2" transform="matrix(1.00087 0 0 1 3393 1287.72)"/><path d="M254.777 74.9344 266.017 74.9344 266.017 86.1746 254.777 86.1746Z" fill="#F2F2F2" transform="matrix(1.00087 0 0 1 3393 1287.72)"/><path d="M254.777 97.4148 266.017 97.4148 266.017 108.655 254.777 108.655Z" fill="#F2F2F2" transform="matrix(1.00087 0 0 1 3393 1287.72)"/><path d="M254.777 52.4541 266.017 52.4541 266.017 63.6943 254.777 63.6943Z" fill="#F2F2F2" transform="matrix(1.00087 0 0 1 3393 1287.72)"/><path d="M254.777 29.9738 266.017 29.9738 266.017 41.2139 254.777 41.2139Z" fill="#F2F2F2" transform="matrix(1.00087 0 0 1 3393 1287.72)"/><path d="M298.614 29.9738 309.479 29.9738 309.479 41.2139 298.614 41.2139Z" fill="#F2F2F2" transform="matrix(1.00087 0 0 1 3393 1287.72)"/><path d="M319.97 29.9738 330.836 29.9738 330.836 41.2139 319.97 41.2139Z" fill="#F2F2F2" transform="matrix(1.00087 0 0 1 3393 1287.72)"/><path d="M276.883 29.9738 287.748 29.9738 287.748 41.2139 276.883 41.2139Z" fill="#F2F2F2" transform="matrix(1.00087 0 0 1 3393 1287.72)"/><path d="M340.952 29.9738 352.192 29.9738 352.192 41.2139 340.952 41.2139Z" fill="#F2F2F2" transform="matrix(1.00087 0 0 1 3393 1287.72)"/><path d="M340.952 52.4541 352.192 52.4541 352.192 63.6943 340.952 63.6943Z" fill="#F2F2F2" transform="matrix(1.00087 0 0 1 3393 1287.72)"/><path d="M340.952 74.9344 352.192 74.9344 352.192 86.1746 340.952 86.1746Z" fill="#F2F2F2" transform="matrix(1.00087 0 0 1 3393 1287.72)"/><path d="M340.952 97.4148 352.192 97.4148 352.192 108.655 340.952 108.655Z" fill="#F2F2F2" transform="matrix(1.00087 0 0 1 3393 1287.72)"/><path d="M262.271 226.677C262.645 227.426 263.395 227.801 264.144 227.801 264.519 227.801 264.893 227.426 265.268 226.677L270.888 211.315 288.498 228.925 296.366 221.057 278.756 203.447 294.118 197.827C294.867 197.452 295.242 196.703 295.242 195.954 295.242 195.579 294.867 195.204 294.118 194.83L249.532 179.843C249.532 179.843 249.157 179.843 249.157 179.843L249.157 179.843C248.408 179.843 247.658 180.592 247.658 181.341 247.658 181.341 247.658 181.716 247.658 181.716L262.271 226.677Z" fill="#F2F2F2" transform="matrix(1.00087 0 0 1 3393 1287.72)"/><path d="M108.655 89.9213 7.49344 89.9213 7.49344 168.602 108.655 168.602 108.655 89.9213ZM97.4148 157.362 18.7336 157.362 18.7336 101.161 97.4148 101.161 97.4148 157.362Z" fill="#F2F2F2" transform="matrix(1.00087 0 0 1 3393 1287.72)"/><path d="M33.7205 110.528 78.6812 110.528 78.6812 121.768 33.7205 121.768Z" fill="#F2F2F2" transform="matrix(1.00087 0 0 1 3393 1287.72)"/><path d="M33.7205 133.009 63.6943 133.009 63.6943 144.249 33.7205 144.249Z" fill="#F2F2F2" transform="matrix(1.00087 0 0 1 3393 1287.72)"/><path d="M318.471 56.2008 273.511 56.2008 273.511 78.6812 310.978 78.6812 310.978 112.402 333.458 112.402 333.458 71.1877C333.458 62.9449 326.714 56.2008 318.471 56.2008Z" fill="#F2F2F2" transform="matrix(1.00087 0 0 1 3393 1287.72)"/><path d="M310.978 243.537 56.2008 243.537 56.2008 183.589 33.7205 183.589 33.7205 251.03C33.7205 259.273 40.4646 266.017 48.7074 266.017L153.616 266.017 153.616 288.498 116.148 288.498 116.148 310.978 251.03 310.978 251.03 288.498 213.563 288.498 213.563 266.017 318.471 266.017C326.714 266.017 333.458 259.273 333.458 251.03L333.458 138.629 310.978 138.629 310.978 243.537Z" fill="#F2F2F2" transform="matrix(1.00087 0 0 1 3393 1287.72)"/><path d="M247.284 56.2008 48.7074 56.2008C40.4646 56.2008 33.7205 62.9449 33.7205 71.1877L33.7205 78.6812 247.284 78.6812 247.284 56.2008Z" fill="#F2F2F2" transform="matrix(1.00087 0 0 1 3393 1287.72)"/></g></g></g></g></svg>